<svg width="42" height="38" viewBox="0 0 42 38" fill="none" xmlns="http://www.w3.org/2000/svg">
<path fill-rule="evenodd" clip-rule="evenodd" d="M31.2904 0.25C34.0841 0.25 36.7716 1.35417 38.7487 3.33542C40.7279 5.3125 41.8342 7.97917 41.8342 10.7708V27.2292C41.8342 33.0417 37.105 37.75 31.2904 37.75H10.7091C4.89456 37.75 0.16748 33.0417 0.16748 27.2292V10.7708C0.16748 4.95833 4.87373 0.25 10.7091 0.25H31.2904ZM34.605 13.875L34.7716 13.7083C35.2696 13.1042 35.2696 12.2292 34.7487 11.625C34.4591 11.3146 34.0612 11.125 33.6466 11.0833C33.2091 11.0604 32.7925 11.2083 32.4779 11.5L23.0841 19C21.8758 20.0021 20.1446 20.0021 18.9175 19L9.54248 11.5C8.89456 11.0208 7.99873 11.0833 7.45915 11.6458C6.89665 12.2083 6.83415 13.1042 7.31123 13.7292L7.58415 14L17.0633 21.3958C18.23 22.3125 19.6446 22.8125 21.1258 22.8125C22.6029 22.8125 24.0425 22.3125 25.2071 21.3958L34.605 13.875Z" fill="#4C34C5"/>
</svg>
