<svg width="44" height="46" viewBox="0 0 44 46" fill="none" xmlns="http://www.w3.org/2000/svg">
<path d="M15.8692 41.1071V34.7181C15.8692 33.093 17.194 31.7726 18.8354 31.7616H24.8481C26.4974 31.7616 27.8344 33.0853 27.8344 34.7181V34.7181V41.1269C27.834 42.5067 28.9464 43.6343 30.3397 43.6667H34.3481C38.344 43.6667 41.5833 40.4597 41.5833 36.5038V36.5038V18.3288C41.562 16.7726 40.8239 15.3111 39.5791 14.3605L25.8703 3.42771C23.4686 1.5241 20.0546 1.5241 17.653 3.42771L4.00422 14.3803C2.75471 15.3271 2.01539 16.791 2 18.3487V36.5038C2 40.4597 5.23932 43.6667 9.23523 43.6667H13.2437C14.6716 43.6667 15.8291 42.5207 15.8291 41.1071V41.1071" stroke="#4C34C5" stroke-width="3" stroke-linecap="round" stroke-linejoin="round"/>
</svg>
