<svg width="49" height="55" viewBox="0 0 49 55" fill="none" xmlns="http://www.w3.org/2000/svg">
<g clip-path="url(#clip0_2048_163)">
<rect x="5.16504" y="8.33337" width="40" height="40" fill="white"/>
<path d="M21.1382 22.7412C20.5099 23.1595 19.9704 23.6969 19.5507 24.3227C19.1309 24.9486 18.8391 25.6506 18.6918 26.3888C18.3944 27.8795 18.7039 29.4269 19.5523 30.6904C20.4007 31.9539 21.7184 32.8302 23.2157 33.1263C24.7129 33.4224 26.2669 33.1142 27.5359 32.2695C28.8049 31.4248 29.6849 30.1127 29.9824 28.6219C30.2798 27.1312 29.9702 25.5838 29.1219 24.3203C28.2735 23.0568 26.9557 22.1805 25.4585 21.8844C23.9613 21.5883 22.4072 21.8965 21.1382 22.7412ZM36.4905 15.3935C35.9295 14.835 35.2498 14.3945 34.5054 14.1045C32.5527 13.3418 28.2911 13.374 25.54 13.4062C25.0977 13.4062 24.6877 13.417 24.3317 13.417C23.9757 13.417 23.5549 13.417 23.1018 13.4062C20.3507 13.374 16.1107 13.331 14.158 14.1045C13.4135 14.3945 12.7446 14.835 12.1728 15.3935C11.601 15.9521 11.1695 16.6289 10.8782 17.3701C10.1122 19.3144 10.1554 23.5683 10.1769 26.3076C10.1769 26.748 10.1877 27.1562 10.1877 27.5C10.1877 27.8437 10.1877 28.2519 10.1769 28.6924C10.1554 31.4316 10.1122 35.6855 10.8782 37.6299C11.1695 38.3711 11.6118 39.0371 12.1728 39.6064C12.7339 40.1758 13.4135 40.6054 14.158 40.8955C16.1107 41.6582 20.3722 41.6259 23.1234 41.5937C23.5657 41.5937 23.9757 41.583 24.3317 41.583C24.6877 41.583 25.1085 41.583 25.5616 41.5937C28.3127 41.6259 32.5527 41.6689 34.5054 40.8955C35.2498 40.6054 35.9187 40.165 36.4905 39.6064C37.0623 39.0478 37.4939 38.3711 37.7852 37.6299C38.562 35.6963 38.5188 31.4638 38.4864 28.7138C38.4864 28.2627 38.4757 27.8437 38.4757 27.4892C38.4757 27.1347 38.4757 26.7265 38.4864 26.2646C38.5188 23.5254 38.562 19.293 37.7852 17.3486C37.4939 16.6074 37.0515 15.9414 36.4905 15.3721V15.3935ZM29.2513 20.1738C31.2028 21.473 32.5559 23.4908 33.0132 25.7833C33.4705 28.0759 32.9943 30.4554 31.6896 32.3984C31.0435 33.3605 30.2135 34.1865 29.2468 34.8291C28.2802 35.4718 27.1959 35.9186 26.0558 36.1441C23.7533 36.5994 21.3635 36.1253 19.412 34.8262C17.4606 33.5284 16.1069 31.512 15.6486 29.2204C15.1903 26.9289 15.6651 24.5499 16.9684 22.6069C18.2718 20.6639 20.2969 19.316 22.5984 18.8597C24.8999 18.4034 27.2891 18.8761 29.2405 20.1738H29.2513ZM32.4016 20.0342C32.0672 19.8086 31.7975 19.4863 31.6356 19.1103C31.4738 18.7344 31.4414 18.3262 31.517 17.918C31.5925 17.5098 31.7975 17.1553 32.078 16.8652C32.3585 16.5752 32.7361 16.3818 33.1353 16.3066C33.5344 16.2314 33.9552 16.2637 34.3328 16.4248C34.7104 16.5859 35.0341 16.8437 35.2606 17.1767C35.4872 17.5098 35.6059 17.9072 35.6059 18.3154C35.6059 18.584 35.5519 18.8525 35.4548 19.0996C35.3577 19.3467 35.1959 19.5723 35.0125 19.7656C34.8291 19.959 34.5917 20.1094 34.3436 20.2168C34.0954 20.3242 33.8257 20.3779 33.556 20.3779C33.146 20.3779 32.7469 20.2598 32.4124 20.0342H32.4016ZM48.4983 10.3125C48.4983 6.52051 45.402 3.4375 41.5936 3.4375H7.0698C3.26139 3.4375 0.165039 6.52051 0.165039 10.3125V44.6875C0.165039 48.4795 3.26139 51.5625 7.0698 51.5625H41.5936C45.402 51.5625 48.4983 48.4795 48.4983 44.6875V10.3125ZM38.6806 41.7871C36.6632 43.7959 34.2141 44.4297 31.4522 44.5693C28.604 44.7304 20.0594 44.7304 17.2112 44.5693C14.4493 44.4297 12.0002 43.7959 9.98274 41.7871C7.96526 39.7783 7.32872 37.3398 7.19926 34.5898C7.03743 31.7539 7.03743 23.2461 7.19926 20.4101C7.33951 17.6601 7.96526 15.2217 9.98274 13.2129C12.0002 11.2041 14.46 10.5703 17.2112 10.4414C20.0594 10.2803 28.604 10.2803 31.4522 10.4414C34.2141 10.581 36.6632 11.2041 38.6806 13.2129C40.6981 15.2217 41.3347 17.6601 41.4641 20.4101C41.6259 23.2353 41.6259 31.7324 41.4641 34.5791C41.3239 37.3291 40.6981 39.7676 38.6806 41.7763V41.7871Z" fill="url(#paint0_linear_2048_163)"/>
</g>
<defs>
<linearGradient id="paint0_linear_2048_163" x1="43.9605" y1="3.99167" x2="-5.66829" y2="51.6666" gradientUnits="userSpaceOnUse">
<stop stop-color="#F2BD2D"/>
<stop offset="1" stop-color="#6F10CF"/>
</linearGradient>
<clipPath id="clip0_2048_163">
<rect width="48.3333" height="55" fill="white" transform="translate(0.165039)"/>
</clipPath>
</defs>
</svg>
