<svg width="46" height="36" viewBox="0 0 46 36" fill="none" xmlns="http://www.w3.org/2000/svg">
<path d="M35.6204 15.8475C38.5267 15.4391 40.7642 12.9475 40.7704 9.92872C40.7704 6.95372 38.6017 4.48705 35.7579 4.02039" stroke="#4C34C5" stroke-width="3" stroke-linecap="round" stroke-linejoin="round"/>
<path d="M39.4554 22.8342C42.27 23.2551 44.2346 24.2405 44.2346 26.2717C44.2346 27.6696 43.3096 28.578 41.8137 29.1488" stroke="#4C34C5" stroke-width="3" stroke-linecap="round" stroke-linejoin="round"/>
<path fill-rule="evenodd" clip-rule="evenodd" d="M23.1183 23.6957C16.4225 23.6957 10.7038 24.7103 10.7038 28.7623C10.7038 32.8123 16.3871 33.8561 23.1183 33.8561C29.8142 33.8561 35.5308 32.8519 35.5308 28.7978C35.5308 24.7436 29.8496 23.6957 23.1183 23.6957Z" stroke="#4C34C5" stroke-width="3" stroke-linecap="round" stroke-linejoin="round"/>
<path fill-rule="evenodd" clip-rule="evenodd" d="M23.1183 17.9125C27.5121 17.9125 31.0746 14.3521 31.0746 9.95625C31.0746 5.5625 27.5121 2 23.1183 2C18.7246 2 15.1621 5.5625 15.1621 9.95625C15.1454 14.3354 18.6808 17.8979 23.06 17.9125H23.1183Z" stroke="#4C34C5" stroke-width="3" stroke-linecap="round" stroke-linejoin="round"/>
<path d="M10.6144 15.8475C7.70604 15.4391 5.47063 12.9475 5.46438 9.92872C5.46438 6.95372 7.63313 4.48705 10.4769 4.02039" stroke="#4C34C5" stroke-width="3" stroke-linecap="round" stroke-linejoin="round"/>
<path d="M6.77917 22.8342C3.96458 23.2551 2 24.2405 2 26.2717C2 27.6696 2.925 28.578 4.42083 29.1488" stroke="#4C34C5" stroke-width="3" stroke-linecap="round" stroke-linejoin="round"/>
</svg>
