<svg width="38" height="36" viewBox="0 0 38 36" fill="none" xmlns="http://www.w3.org/2000/svg">
<path fill-rule="evenodd" clip-rule="evenodd" d="M21.3005 1.70206L25.1076 9.30778C25.4808 10.0545 26.201 10.5722 27.0361 10.692L35.5528 11.9179C37.657 12.2217 38.4943 14.7719 36.9715 16.2332L30.8129 22.1509C30.2076 22.7328 29.9321 23.5693 30.0753 24.3909L31.5287 32.7454C31.8867 34.8121 29.687 36.3889 27.8062 35.4112L20.1942 31.4639C19.448 31.0766 18.5542 31.0766 17.8058 31.4639L10.1938 35.4112C8.31298 36.3889 6.11332 34.8121 6.47342 32.7454L7.92468 24.3909C8.06785 23.5693 7.79235 22.7328 7.18712 22.1509L1.0285 16.2332C-0.494343 14.7719 0.343004 12.2217 2.44722 11.9179L10.9639 10.692C11.799 10.5722 12.5214 10.0545 12.8945 9.30778L16.6995 1.70206C17.6409 -0.178517 20.3591 -0.178517 21.3005 1.70206Z" fill="#4C34C5"/>
</svg>
