<svg width="53" height="55" viewBox="0 0 53 55" fill="none" xmlns="http://www.w3.org/2000/svg">
<g clip-path="url(#clip0_2048_166)">
<rect x="9.27734" y="11.6666" width="35" height="35" fill="white"/>
<path d="M26.7772 0.859375C12.5063 0.859375 0.943848 12.7832 0.943848 27.5C0.943848 42.2168 12.5063 54.1406 26.7772 54.1406C41.048 54.1406 52.6105 42.2168 52.6105 27.5C52.6105 12.7832 41.048 0.859375 26.7772 0.859375ZM38.7563 18.9814C38.3709 23.1924 36.6834 33.4189 35.8292 38.1347C35.4646 40.1328 34.7563 40.7988 34.0688 40.8633C32.5688 41.0029 31.4334 39.8427 29.9751 38.8545C27.7042 37.3183 26.4126 36.3623 24.2147 34.8584C21.6626 33.1289 23.3188 32.1728 24.7667 30.6152C25.1522 30.207 31.7563 24.0088 31.8813 23.4502C31.9022 23.375 31.9126 23.1172 31.7563 22.9775C31.6001 22.8379 31.3813 22.8916 31.2251 22.9238C30.9959 22.9739 27.364 25.4482 20.3292 30.3467C19.3015 31.0771 18.3674 31.4316 17.5272 31.4101C16.6001 31.3886 14.8293 30.873 13.5063 30.4326C11.8918 29.8955 10.6001 29.6054 10.7147 28.6816C10.7702 28.2018 11.4126 27.7112 12.6418 27.2099C20.1695 23.8297 25.1904 21.5989 27.7042 20.5176C34.8813 17.4453 36.3709 16.9082 37.3396 16.8867C37.5584 16.8867 38.0271 16.9404 38.3396 17.1982C38.5436 17.3831 38.6736 17.6397 38.7042 17.918C38.7606 18.2693 38.778 18.626 38.7563 18.9814Z" fill="#33A9E4"/>
</g>
<defs>
<clipPath id="clip0_2048_166">
<rect width="51.6666" height="55" fill="white" transform="translate(0.943848)"/>
</clipPath>
</defs>
</svg>
