<svg width="49" height="55" viewBox="0 0 49 55" fill="none" xmlns="http://www.w3.org/2000/svg">
<g clip-path="url(#clip0_2048_160)">
<rect x="5" y="15" width="40" height="28.3333" fill="white"/>
<path d="M3.39844 6.82129C0 10.2051 0 15.6514 0 26.5332V28.4668C0 39.3486 0 44.7949 3.39844 48.1787C6.79687 51.5625 12.2667 51.5625 23.1957 51.5625H25.1376C36.0666 51.5625 41.5364 51.5625 44.9349 48.1787C48.3333 44.7949 48.3333 39.3486 48.3333 28.4668V26.5332C48.3333 15.6514 48.3333 10.2051 44.9349 6.82129C41.5364 3.4375 36.0666 3.4375 25.1376 3.4375H23.1957C12.2667 3.4375 6.79687 3.4375 3.39844 6.82129ZM8.15624 18.0791H13.6693C13.8527 27.2637 17.92 31.1523 21.1458 31.9472V18.0791H26.346V25.9961C29.5286 25.6523 32.8623 22.043 33.9951 18.0791H39.1953C38.7637 20.1308 37.9222 22.0859 36.7031 23.8047C35.484 25.5234 33.9304 26.9736 32.1179 28.0586C34.1354 29.0576 35.9155 30.4648 37.3396 32.2051C38.7745 33.9345 39.8102 35.9433 40.4036 38.1025H34.6748C34.157 36.2334 33.0781 34.5469 31.6001 33.2793C30.1112 32.001 28.2879 31.1953 26.346 30.9482V38.1025H25.7202C14.705 38.1025 8.41517 30.583 8.15624 18.0791Z" fill="#0277FF"/>
</g>
<defs>
<clipPath id="clip0_2048_160">
<rect width="48.3333" height="55" fill="white"/>
</clipPath>
</defs>
</svg>
