<svg width="49" height="55" viewBox="0 0 49 55" fill="none" xmlns="http://www.w3.org/2000/svg">
<g clip-path="url(#clip0_2048_169)">
<rect x="3.55469" y="8.33337" width="41.6666" height="40" fill="white"/>
<path d="M10.1576 27.3496C10.1576 30.0244 10.9128 32.6347 12.3369 34.8799L12.6713 35.417L11.2364 40.6377L16.62 39.2304L17.1378 39.542C19.3172 40.831 21.8201 41.5185 24.3771 41.5185H24.3878C32.2204 41.5185 38.7692 35.1699 38.7692 27.3603C38.7692 23.5791 37.1293 20.0234 34.4429 17.3486C31.7457 14.6631 28.1855 13.1914 24.3878 13.1914C16.5445 13.1914 10.1684 19.54 10.1576 27.3496ZM29.8685 35.4492C28.5091 35.6533 27.4518 35.5459 24.7439 34.3857C20.7736 32.6777 18.0765 28.8535 17.5262 28.0801C17.4831 28.0156 17.4507 27.9834 17.4399 27.9619C17.2242 27.6826 15.6922 25.6523 15.6922 23.5576C15.6922 21.581 16.6631 20.5605 17.1163 20.0879C17.1486 20.0557 17.1702 20.0342 17.1918 20.0019C17.5802 19.5723 18.0441 19.4648 18.3354 19.4648C18.6159 19.4648 18.9072 19.4648 19.1553 19.4756C19.1877 19.4756 19.2093 19.4756 19.2416 19.4756C19.4898 19.4756 19.8027 19.4756 20.1155 20.206C20.245 20.5176 20.4392 20.9902 20.6442 21.4736C21.0002 22.333 21.367 23.2246 21.4317 23.3642C21.5396 23.5791 21.6151 23.8262 21.4641 24.1055C21.0973 24.8359 20.7197 25.2226 20.4608 25.5019C20.1263 25.8457 19.9753 26.0068 20.2126 26.4258C21.8633 29.251 23.514 30.2285 26.0277 31.4853C26.4593 31.7002 26.7074 31.6679 26.9555 31.3779C27.2037 31.0986 28.0236 30.1318 28.3041 29.7129C28.5846 29.2832 28.8759 29.3584 29.2643 29.498C29.6527 29.6377 31.7565 30.6689 32.1881 30.8838C32.2744 30.9267 32.3499 30.959 32.4146 30.9912C32.7167 31.1416 32.9217 31.2383 33.008 31.3779C33.1051 31.582 33.1051 32.4414 32.7491 33.4297C32.393 34.4287 30.6884 35.331 29.8685 35.4492ZM48.5545 10.3125C48.5545 6.52051 45.4581 3.4375 41.6497 3.4375H7.12595C3.31754 3.4375 0.221191 6.52051 0.221191 10.3125V44.6875C0.221191 48.4795 3.31754 51.5625 7.12595 51.5625H41.6497C45.4581 51.5625 48.5545 48.4795 48.5545 44.6875V10.3125ZM16.1992 42.3134L7.12595 44.6875L9.5534 35.8574C8.05378 33.2793 7.2662 30.3467 7.2662 27.3389C7.27699 17.9502 14.9477 10.3125 24.3771 10.3125C28.9515 10.3125 33.2453 12.085 36.482 15.3076C39.7078 18.5303 41.6497 22.8057 41.6497 27.3603C41.6497 36.749 33.8064 44.3867 24.3771 44.3867C21.5073 44.3867 18.6914 43.667 16.1992 42.3134Z" fill="#32DD51"/>
</g>
<defs>
<clipPath id="clip0_2048_169">
<rect width="48.3333" height="55" fill="white" transform="translate(0.221191)"/>
</clipPath>
</defs>
</svg>
