<svg width="665" height="1061" viewBox="0 0 665 1061" fill="none" xmlns="http://www.w3.org/2000/svg">
<path d="M629.278 1030.02C629.825 1030.64 630.773 1030.7 631.395 1030.15L641.53 1021.24C642.151 1020.69 642.212 1019.74 641.665 1019.12C641.117 1018.5 640.17 1018.44 639.548 1018.98L630.539 1026.91L622.612 1017.9C622.064 1017.28 621.117 1017.22 620.495 1017.77C619.873 1018.32 619.812 1019.26 620.359 1019.88L629.278 1030.02ZM470.105 743.588L471.281 744.52L470.105 743.588ZM621.375 910.391L622.808 909.947L621.375 910.391ZM531.571 679.816L532.981 679.303L531.571 679.816ZM531.608 877.638L531.658 876.139L531.608 877.638ZM630.404 1029.03C631.901 1029.12 631.901 1029.12 631.901 1029.12C631.901 1029.12 631.901 1029.12 631.901 1029.12C631.901 1029.12 631.901 1029.11 631.902 1029.11C631.902 1029.1 631.903 1029.09 631.904 1029.07C631.907 1029.03 631.91 1028.98 631.914 1028.9C631.923 1028.76 631.936 1028.55 631.951 1028.27C631.983 1027.71 632.027 1026.89 632.079 1025.82C632.182 1023.7 632.314 1020.61 632.429 1016.78C632.659 1009.1 632.821 998.406 632.553 986.318C632.016 962.183 629.758 932.347 622.808 909.947L619.942 910.836C626.762 932.813 629.018 962.296 629.553 986.385C629.821 998.409 629.659 1009.05 629.43 1016.69C629.316 1020.5 629.185 1023.57 629.082 1025.68C629.031 1026.73 628.987 1027.55 628.956 1028.1C628.941 1028.37 628.928 1028.58 628.92 1028.72C628.916 1028.79 628.912 1028.85 628.91 1028.88C628.909 1028.9 628.908 1028.91 628.908 1028.92C628.907 1028.93 628.907 1028.93 628.907 1028.93C628.907 1028.93 628.907 1028.93 628.907 1028.93C628.907 1028.93 628.907 1028.93 630.404 1029.03ZM622.808 909.947C609.754 867.878 585.443 808.902 557.54 768.966C543.616 749.037 528.635 733.608 513.519 727.569C505.911 724.53 498.229 723.855 490.663 726.226C483.115 728.591 475.839 733.938 468.929 742.657L471.281 744.52C477.933 736.126 484.741 731.226 491.56 729.089C498.359 726.958 505.325 727.527 512.406 730.355C526.666 736.052 541.226 750.854 555.081 770.684C582.736 810.265 606.935 868.917 619.942 910.836L622.808 909.947ZM532.981 679.303C520.854 645.981 503.778 619.271 489.737 600.894C482.716 591.704 476.449 584.591 471.933 579.772C469.675 577.362 467.854 575.525 466.594 574.288C465.964 573.669 465.475 573.2 465.141 572.885C464.974 572.727 464.846 572.607 464.76 572.527C464.716 572.486 464.683 572.455 464.66 572.434C464.649 572.424 464.64 572.416 464.634 572.41C464.631 572.408 464.628 572.405 464.627 572.404C464.626 572.403 464.625 572.402 464.624 572.402C464.624 572.401 464.623 572.401 463.612 573.509C462.601 574.616 462.601 574.616 462.601 574.616C462.601 574.616 462.601 574.617 462.602 574.617C462.602 574.618 462.604 574.619 462.606 574.622C462.611 574.626 462.618 574.632 462.628 574.641C462.647 574.659 462.677 574.687 462.718 574.724C462.798 574.799 462.919 574.912 463.079 575.064C463.4 575.367 463.876 575.823 464.492 576.428C465.724 577.638 467.516 579.445 469.744 581.823C474.201 586.579 480.401 593.615 487.354 602.715C501.262 620.92 518.165 647.364 530.162 680.329L532.981 679.303ZM468.929 742.657C444.923 772.949 446.19 806.648 460.66 832.953C475.087 859.18 502.702 878.17 531.558 879.137L531.658 876.139C504.011 875.212 477.283 856.947 463.288 831.507C449.337 806.144 448.104 773.765 471.281 744.52L468.929 742.657ZM531.558 879.137C539.966 879.419 546.822 877.615 552.265 873.992C557.705 870.371 561.606 865.018 564.252 858.418C569.518 845.284 569.909 826.981 567.468 806.592C562.578 765.751 546.193 715.607 532.981 679.303L530.162 680.329C543.369 716.621 559.644 766.481 564.489 806.949C566.916 827.215 566.443 844.892 561.467 857.301C558.993 863.473 555.428 868.282 550.603 871.494C545.781 874.704 539.572 876.404 531.658 876.139L531.558 879.137Z" fill="#4C34C5"/>
<ellipse cx="223.5" cy="645.5" rx="223.5" ry="218.5" fill="#E3E2CD"/>
<path d="M555.966 91.3991C557.054 93.2841 558.114 95.1877 559.145 97.109C557.273 95.8844 556.022 93.7895 555.966 91.3991Z" fill="#4C34C5"/>
<path d="M517.54 42.9486C520.81 46.0175 523.982 49.1897 527.051 52.4599C525.865 54.6531 523.544 56.1429 520.875 56.1429C516.999 56.1429 513.857 53.0009 513.857 49.125C513.857 46.4562 515.347 44.1354 517.54 42.9486Z" fill="#4C34C5"/>
<path d="M472.891 10.855C474.812 11.8858 476.716 12.9456 478.601 14.0338C476.21 13.978 474.116 12.7269 472.891 10.855Z" fill="#4C34C5"/>
<path d="M268.399 14.0338C270.284 12.9456 272.188 11.8858 274.109 10.855C272.884 12.7269 270.79 13.978 268.399 14.0338Z" fill="#4C34C5"/>
<path d="M219.949 52.4599C223.018 49.1897 226.19 46.0175 229.46 42.9486C231.653 44.1354 233.143 46.4562 233.143 49.125C233.143 53.0009 230.001 56.1429 226.125 56.1429C223.456 56.1429 221.135 54.6531 219.949 52.4599Z" fill="#4C34C5"/>
<path d="M187.855 97.109C188.886 95.1877 189.946 93.2841 191.034 91.3991C190.978 93.7895 189.727 95.8844 187.855 97.109Z" fill="#4C34C5"/>
<path d="M559.145 295.891C558.114 297.812 557.054 299.716 555.966 301.601C556.022 299.21 557.273 297.116 559.145 295.891Z" fill="#4C34C5"/>
<path d="M527.051 340.54C525.865 338.347 523.544 336.857 520.875 336.857C516.999 336.857 513.857 339.999 513.857 343.875C513.857 346.544 515.347 348.865 517.54 350.051C520.81 346.982 523.982 343.81 527.051 340.54Z" fill="#4C34C5"/>
<path d="M478.601 378.966C476.21 379.022 474.116 380.273 472.891 382.145C474.812 381.114 476.716 380.054 478.601 378.966Z" fill="#4C34C5"/>
<path d="M274.109 382.145C272.884 380.273 270.79 379.022 268.399 378.966C270.284 380.054 272.188 381.114 274.109 382.145Z" fill="#4C34C5"/>
<path d="M229.46 350.051C231.653 348.865 233.143 346.544 233.143 343.875C233.143 339.999 230.001 336.857 226.125 336.857C223.456 336.857 221.135 338.347 219.949 340.54C223.018 343.81 226.19 346.982 229.46 350.051Z" fill="#4C34C5"/>
<path d="M191.034 301.601C190.978 299.21 189.727 297.116 187.855 295.891C188.886 297.812 189.946 299.716 191.034 301.601Z" fill="#4C34C5"/>
<path d="M317.357 7.01786C317.357 10.8937 314.215 14.0357 310.339 14.0357C306.463 14.0357 303.321 10.8937 303.321 7.01786C303.321 3.142 306.463 0 310.339 0C314.215 0 317.357 3.142 317.357 7.01786Z" fill="#4C34C5"/>
<path d="M359.464 7.01786C359.464 10.8937 356.322 14.0357 352.446 14.0357C348.571 14.0357 345.429 10.8937 345.429 7.01786C345.429 3.142 348.571 0 352.446 0C356.322 0 359.464 3.142 359.464 7.01786Z" fill="#4C34C5"/>
<path d="M401.571 7.01786C401.571 10.8937 398.429 14.0357 394.554 14.0357C390.678 14.0357 387.536 10.8937 387.536 7.01786C387.536 3.142 390.678 0 394.554 0C398.429 0 401.571 3.142 401.571 7.01786Z" fill="#4C34C5"/>
<path d="M443.679 7.01786C443.679 10.8937 440.537 14.0357 436.661 14.0357C432.785 14.0357 429.643 10.8937 429.643 7.01786C429.643 3.142 432.785 0 436.661 0C440.537 0 443.679 3.142 443.679 7.01786Z" fill="#4C34C5"/>
<path d="M275.25 49.125C275.25 53.0009 272.108 56.1429 268.232 56.1429C264.356 56.1429 261.214 53.0009 261.214 49.125C261.214 45.2491 264.356 42.1071 268.232 42.1071C272.108 42.1071 275.25 45.2491 275.25 49.125Z" fill="#4C34C5"/>
<path d="M317.357 49.125C317.357 53.0009 314.215 56.1429 310.339 56.1429C306.463 56.1429 303.321 53.0009 303.321 49.125C303.321 45.2491 306.463 42.1071 310.339 42.1071C314.215 42.1071 317.357 45.2491 317.357 49.125Z" fill="#4C34C5"/>
<path d="M359.464 49.125C359.464 53.0009 356.322 56.1429 352.446 56.1429C348.571 56.1429 345.429 53.0009 345.429 49.125C345.429 45.2491 348.571 42.1071 352.446 42.1071C356.322 42.1071 359.464 45.2491 359.464 49.125Z" fill="#4C34C5"/>
<path d="M401.571 49.125C401.571 53.0009 398.429 56.1429 394.554 56.1429C390.678 56.1429 387.536 53.0009 387.536 49.125C387.536 45.2491 390.678 42.1071 394.554 42.1071C398.429 42.1071 401.571 45.2491 401.571 49.125Z" fill="#4C34C5"/>
<path d="M443.679 49.125C443.679 53.0009 440.537 56.1429 436.661 56.1429C432.785 56.1429 429.643 53.0009 429.643 49.125C429.643 45.2491 432.785 42.1071 436.661 42.1071C440.537 42.1071 443.679 45.2491 443.679 49.125Z" fill="#4C34C5"/>
<path d="M485.786 49.125C485.786 53.0009 482.644 56.1429 478.768 56.1429C474.892 56.1429 471.75 53.0009 471.75 49.125C471.75 45.2491 474.892 42.1071 478.768 42.1071C482.644 42.1071 485.786 45.2491 485.786 49.125Z" fill="#4C34C5"/>
<path d="M233.143 91.2321C233.143 95.108 230.001 98.25 226.125 98.25C222.249 98.25 219.107 95.108 219.107 91.2321C219.107 87.3563 222.249 84.2143 226.125 84.2143C230.001 84.2143 233.143 87.3563 233.143 91.2321Z" fill="#4C34C5"/>
<path d="M275.25 91.2321C275.25 95.108 272.108 98.25 268.232 98.25C264.356 98.25 261.214 95.108 261.214 91.2321C261.214 87.3563 264.356 84.2143 268.232 84.2143C272.108 84.2143 275.25 87.3563 275.25 91.2321Z" fill="#4C34C5"/>
<path d="M317.357 91.2321C317.357 95.108 314.215 98.25 310.339 98.25C306.463 98.25 303.321 95.108 303.321 91.2321C303.321 87.3563 306.463 84.2143 310.339 84.2143C314.215 84.2143 317.357 87.3563 317.357 91.2321Z" fill="#4C34C5"/>
<path d="M359.464 91.2321C359.464 95.108 356.322 98.25 352.446 98.25C348.571 98.25 345.429 95.108 345.429 91.2321C345.429 87.3563 348.571 84.2143 352.446 84.2143C356.322 84.2143 359.464 87.3563 359.464 91.2321Z" fill="#4C34C5"/>
<path d="M401.571 91.2321C401.571 95.108 398.429 98.25 394.554 98.25C390.678 98.25 387.536 95.108 387.536 91.2321C387.536 87.3563 390.678 84.2143 394.554 84.2143C398.429 84.2143 401.571 87.3563 401.571 91.2321Z" fill="#4C34C5"/>
<path d="M443.679 91.2321C443.679 95.108 440.537 98.25 436.661 98.25C432.785 98.25 429.643 95.108 429.643 91.2321C429.643 87.3563 432.785 84.2143 436.661 84.2143C440.537 84.2143 443.679 87.3563 443.679 91.2321Z" fill="#4C34C5"/>
<path d="M485.786 91.2321C485.786 95.108 482.644 98.25 478.768 98.25C474.892 98.25 471.75 95.108 471.75 91.2321C471.75 87.3563 474.892 84.2143 478.768 84.2143C482.644 84.2143 485.786 87.3563 485.786 91.2321Z" fill="#4C34C5"/>
<path d="M527.893 91.2321C527.893 95.108 524.751 98.25 520.875 98.25C516.999 98.25 513.857 95.108 513.857 91.2321C513.857 87.3563 516.999 84.2143 520.875 84.2143C524.751 84.2143 527.893 87.3563 527.893 91.2321Z" fill="#4C34C5"/>
<path d="M191.036 133.339C191.036 137.215 187.894 140.357 184.018 140.357C180.142 140.357 177 137.215 177 133.339C177 129.463 180.142 126.321 184.018 126.321C187.894 126.321 191.036 129.463 191.036 133.339Z" fill="#4C34C5"/>
<path d="M233.143 133.339C233.143 137.215 230.001 140.357 226.125 140.357C222.249 140.357 219.107 137.215 219.107 133.339C219.107 129.463 222.249 126.321 226.125 126.321C230.001 126.321 233.143 129.463 233.143 133.339Z" fill="#4C34C5"/>
<path d="M275.25 133.339C275.25 137.215 272.108 140.357 268.232 140.357C264.356 140.357 261.214 137.215 261.214 133.339C261.214 129.463 264.356 126.321 268.232 126.321C272.108 126.321 275.25 129.463 275.25 133.339Z" fill="#4C34C5"/>
<path d="M317.357 133.339C317.357 137.215 314.215 140.357 310.339 140.357C306.463 140.357 303.321 137.215 303.321 133.339C303.321 129.463 306.463 126.321 310.339 126.321C314.215 126.321 317.357 129.463 317.357 133.339Z" fill="#4C34C5"/>
<path d="M359.464 133.339C359.464 137.215 356.322 140.357 352.446 140.357C348.571 140.357 345.429 137.215 345.429 133.339C345.429 129.463 348.571 126.321 352.446 126.321C356.322 126.321 359.464 129.463 359.464 133.339Z" fill="#4C34C5"/>
<path d="M401.571 133.339C401.571 137.215 398.429 140.357 394.554 140.357C390.678 140.357 387.536 137.215 387.536 133.339C387.536 129.463 390.678 126.321 394.554 126.321C398.429 126.321 401.571 129.463 401.571 133.339Z" fill="#4C34C5"/>
<path d="M443.679 133.339C443.679 137.215 440.537 140.357 436.661 140.357C432.785 140.357 429.643 137.215 429.643 133.339C429.643 129.463 432.785 126.321 436.661 126.321C440.537 126.321 443.679 129.463 443.679 133.339Z" fill="#4C34C5"/>
<path d="M485.786 133.339C485.786 137.215 482.644 140.357 478.768 140.357C474.892 140.357 471.75 137.215 471.75 133.339C471.75 129.463 474.892 126.321 478.768 126.321C482.644 126.321 485.786 129.463 485.786 133.339Z" fill="#4C34C5"/>
<path d="M527.893 133.339C527.893 137.215 524.751 140.357 520.875 140.357C516.999 140.357 513.857 137.215 513.857 133.339C513.857 129.463 516.999 126.321 520.875 126.321C524.751 126.321 527.893 129.463 527.893 133.339Z" fill="#4C34C5"/>
<path d="M570 133.339C570 137.215 566.858 140.357 562.982 140.357C559.106 140.357 555.964 137.215 555.964 133.339C555.964 129.463 559.106 126.321 562.982 126.321C566.858 126.321 570 129.463 570 133.339Z" fill="#4C34C5"/>
<path d="M191.036 175.446C191.036 179.322 187.894 182.464 184.018 182.464C180.142 182.464 177 179.322 177 175.446C177 171.571 180.142 168.429 184.018 168.429C187.894 168.429 191.036 171.571 191.036 175.446Z" fill="#4C34C5"/>
<path d="M233.143 175.446C233.143 179.322 230.001 182.464 226.125 182.464C222.249 182.464 219.107 179.322 219.107 175.446C219.107 171.571 222.249 168.429 226.125 168.429C230.001 168.429 233.143 171.571 233.143 175.446Z" fill="#4C34C5"/>
<path d="M275.25 175.446C275.25 179.322 272.108 182.464 268.232 182.464C264.356 182.464 261.214 179.322 261.214 175.446C261.214 171.571 264.356 168.429 268.232 168.429C272.108 168.429 275.25 171.571 275.25 175.446Z" fill="#4C34C5"/>
<path d="M317.357 175.446C317.357 179.322 314.215 182.464 310.339 182.464C306.463 182.464 303.321 179.322 303.321 175.446C303.321 171.571 306.463 168.429 310.339 168.429C314.215 168.429 317.357 171.571 317.357 175.446Z" fill="#4C34C5"/>
<path d="M359.464 175.446C359.464 179.322 356.322 182.464 352.446 182.464C348.571 182.464 345.429 179.322 345.429 175.446C345.429 171.571 348.571 168.429 352.446 168.429C356.322 168.429 359.464 171.571 359.464 175.446Z" fill="#4C34C5"/>
<path d="M401.571 175.446C401.571 179.322 398.429 182.464 394.554 182.464C390.678 182.464 387.536 179.322 387.536 175.446C387.536 171.571 390.678 168.429 394.554 168.429C398.429 168.429 401.571 171.571 401.571 175.446Z" fill="#4C34C5"/>
<path d="M443.679 175.446C443.679 179.322 440.537 182.464 436.661 182.464C432.785 182.464 429.643 179.322 429.643 175.446C429.643 171.571 432.785 168.429 436.661 168.429C440.537 168.429 443.679 171.571 443.679 175.446Z" fill="#4C34C5"/>
<path d="M485.786 175.446C485.786 179.322 482.644 182.464 478.768 182.464C474.892 182.464 471.75 179.322 471.75 175.446C471.75 171.571 474.892 168.429 478.768 168.429C482.644 168.429 485.786 171.571 485.786 175.446Z" fill="#4C34C5"/>
<path d="M527.893 175.446C527.893 179.322 524.751 182.464 520.875 182.464C516.999 182.464 513.857 179.322 513.857 175.446C513.857 171.571 516.999 168.429 520.875 168.429C524.751 168.429 527.893 171.571 527.893 175.446Z" fill="#4C34C5"/>
<path d="M570 175.446C570 179.322 566.858 182.464 562.982 182.464C559.106 182.464 555.964 179.322 555.964 175.446C555.964 171.571 559.106 168.429 562.982 168.429C566.858 168.429 570 171.571 570 175.446Z" fill="#4C34C5"/>
<path d="M191.036 217.554C191.036 221.429 187.894 224.571 184.018 224.571C180.142 224.571 177 221.429 177 217.554C177 213.678 180.142 210.536 184.018 210.536C187.894 210.536 191.036 213.678 191.036 217.554Z" fill="#4C34C5"/>
<path d="M233.143 217.554C233.143 221.429 230.001 224.571 226.125 224.571C222.249 224.571 219.107 221.429 219.107 217.554C219.107 213.678 222.249 210.536 226.125 210.536C230.001 210.536 233.143 213.678 233.143 217.554Z" fill="#4C34C5"/>
<path d="M275.25 217.554C275.25 221.429 272.108 224.571 268.232 224.571C264.356 224.571 261.214 221.429 261.214 217.554C261.214 213.678 264.356 210.536 268.232 210.536C272.108 210.536 275.25 213.678 275.25 217.554Z" fill="#4C34C5"/>
<path d="M317.357 217.554C317.357 221.429 314.215 224.571 310.339 224.571C306.463 224.571 303.321 221.429 303.321 217.554C303.321 213.678 306.463 210.536 310.339 210.536C314.215 210.536 317.357 213.678 317.357 217.554Z" fill="#4C34C5"/>
<path d="M359.464 217.554C359.464 221.429 356.322 224.571 352.446 224.571C348.571 224.571 345.429 221.429 345.429 217.554C345.429 213.678 348.571 210.536 352.446 210.536C356.322 210.536 359.464 213.678 359.464 217.554Z" fill="#4C34C5"/>
<path d="M401.571 217.554C401.571 221.429 398.429 224.571 394.554 224.571C390.678 224.571 387.536 221.429 387.536 217.554C387.536 213.678 390.678 210.536 394.554 210.536C398.429 210.536 401.571 213.678 401.571 217.554Z" fill="#4C34C5"/>
<path d="M443.679 217.554C443.679 221.429 440.537 224.571 436.661 224.571C432.785 224.571 429.643 221.429 429.643 217.554C429.643 213.678 432.785 210.536 436.661 210.536C440.537 210.536 443.679 213.678 443.679 217.554Z" fill="#4C34C5"/>
<path d="M485.786 217.554C485.786 221.429 482.644 224.571 478.768 224.571C474.892 224.571 471.75 221.429 471.75 217.554C471.75 213.678 474.892 210.536 478.768 210.536C482.644 210.536 485.786 213.678 485.786 217.554Z" fill="#4C34C5"/>
<path d="M527.893 217.554C527.893 221.429 524.751 224.571 520.875 224.571C516.999 224.571 513.857 221.429 513.857 217.554C513.857 213.678 516.999 210.536 520.875 210.536C524.751 210.536 527.893 213.678 527.893 217.554Z" fill="#4C34C5"/>
<path d="M570 217.554C570 221.429 566.858 224.571 562.982 224.571C559.106 224.571 555.964 221.429 555.964 217.554C555.964 213.678 559.106 210.536 562.982 210.536C566.858 210.536 570 213.678 570 217.554Z" fill="#4C34C5"/>
<path d="M191.036 259.661C191.036 263.537 187.894 266.679 184.018 266.679C180.142 266.679 177 263.537 177 259.661C177 255.785 180.142 252.643 184.018 252.643C187.894 252.643 191.036 255.785 191.036 259.661Z" fill="#4C34C5"/>
<path d="M233.143 259.661C233.143 263.537 230.001 266.679 226.125 266.679C222.249 266.679 219.107 263.537 219.107 259.661C219.107 255.785 222.249 252.643 226.125 252.643C230.001 252.643 233.143 255.785 233.143 259.661Z" fill="#4C34C5"/>
<path d="M275.25 259.661C275.25 263.537 272.108 266.679 268.232 266.679C264.356 266.679 261.214 263.537 261.214 259.661C261.214 255.785 264.356 252.643 268.232 252.643C272.108 252.643 275.25 255.785 275.25 259.661Z" fill="#4C34C5"/>
<path d="M317.357 259.661C317.357 263.537 314.215 266.679 310.339 266.679C306.463 266.679 303.321 263.537 303.321 259.661C303.321 255.785 306.463 252.643 310.339 252.643C314.215 252.643 317.357 255.785 317.357 259.661Z" fill="#4C34C5"/>
<path d="M359.464 259.661C359.464 263.537 356.322 266.679 352.446 266.679C348.571 266.679 345.429 263.537 345.429 259.661C345.429 255.785 348.571 252.643 352.446 252.643C356.322 252.643 359.464 255.785 359.464 259.661Z" fill="#4C34C5"/>
<path d="M401.571 259.661C401.571 263.537 398.429 266.679 394.554 266.679C390.678 266.679 387.536 263.537 387.536 259.661C387.536 255.785 390.678 252.643 394.554 252.643C398.429 252.643 401.571 255.785 401.571 259.661Z" fill="#4C34C5"/>
<path d="M443.679 259.661C443.679 263.537 440.537 266.679 436.661 266.679C432.785 266.679 429.643 263.537 429.643 259.661C429.643 255.785 432.785 252.643 436.661 252.643C440.537 252.643 443.679 255.785 443.679 259.661Z" fill="#4C34C5"/>
<path d="M485.786 259.661C485.786 263.537 482.644 266.679 478.768 266.679C474.892 266.679 471.75 263.537 471.75 259.661C471.75 255.785 474.892 252.643 478.768 252.643C482.644 252.643 485.786 255.785 485.786 259.661Z" fill="#4C34C5"/>
<path d="M527.893 259.661C527.893 263.537 524.751 266.679 520.875 266.679C516.999 266.679 513.857 263.537 513.857 259.661C513.857 255.785 516.999 252.643 520.875 252.643C524.751 252.643 527.893 255.785 527.893 259.661Z" fill="#4C34C5"/>
<path d="M570 259.661C570 263.537 566.858 266.679 562.982 266.679C559.106 266.679 555.964 263.537 555.964 259.661C555.964 255.785 559.106 252.643 562.982 252.643C566.858 252.643 570 255.785 570 259.661Z" fill="#4C34C5"/>
<path d="M233.143 301.768C233.143 305.644 230.001 308.786 226.125 308.786C222.249 308.786 219.107 305.644 219.107 301.768C219.107 297.892 222.249 294.75 226.125 294.75C230.001 294.75 233.143 297.892 233.143 301.768Z" fill="#4C34C5"/>
<path d="M275.25 301.768C275.25 305.644 272.108 308.786 268.232 308.786C264.356 308.786 261.214 305.644 261.214 301.768C261.214 297.892 264.356 294.75 268.232 294.75C272.108 294.75 275.25 297.892 275.25 301.768Z" fill="#4C34C5"/>
<path d="M317.357 301.768C317.357 305.644 314.215 308.786 310.339 308.786C306.463 308.786 303.321 305.644 303.321 301.768C303.321 297.892 306.463 294.75 310.339 294.75C314.215 294.75 317.357 297.892 317.357 301.768Z" fill="#4C34C5"/>
<path d="M359.464 301.768C359.464 305.644 356.322 308.786 352.446 308.786C348.571 308.786 345.429 305.644 345.429 301.768C345.429 297.892 348.571 294.75 352.446 294.75C356.322 294.75 359.464 297.892 359.464 301.768Z" fill="#4C34C5"/>
<path d="M401.571 301.768C401.571 305.644 398.429 308.786 394.554 308.786C390.678 308.786 387.536 305.644 387.536 301.768C387.536 297.892 390.678 294.75 394.554 294.75C398.429 294.75 401.571 297.892 401.571 301.768Z" fill="#4C34C5"/>
<path d="M443.679 301.768C443.679 305.644 440.537 308.786 436.661 308.786C432.785 308.786 429.643 305.644 429.643 301.768C429.643 297.892 432.785 294.75 436.661 294.75C440.537 294.75 443.679 297.892 443.679 301.768Z" fill="#4C34C5"/>
<path d="M485.786 301.768C485.786 305.644 482.644 308.786 478.768 308.786C474.892 308.786 471.75 305.644 471.75 301.768C471.75 297.892 474.892 294.75 478.768 294.75C482.644 294.75 485.786 297.892 485.786 301.768Z" fill="#4C34C5"/>
<path d="M527.893 301.768C527.893 305.644 524.751 308.786 520.875 308.786C516.999 308.786 513.857 305.644 513.857 301.768C513.857 297.892 516.999 294.75 520.875 294.75C524.751 294.75 527.893 297.892 527.893 301.768Z" fill="#4C34C5"/>
<path d="M275.25 343.875C275.25 347.751 272.108 350.893 268.232 350.893C264.356 350.893 261.214 347.751 261.214 343.875C261.214 339.999 264.356 336.857 268.232 336.857C272.108 336.857 275.25 339.999 275.25 343.875Z" fill="#4C34C5"/>
<path d="M317.357 343.875C317.357 347.751 314.215 350.893 310.339 350.893C306.463 350.893 303.321 347.751 303.321 343.875C303.321 339.999 306.463 336.857 310.339 336.857C314.215 336.857 317.357 339.999 317.357 343.875Z" fill="#4C34C5"/>
<path d="M359.464 343.875C359.464 347.751 356.322 350.893 352.446 350.893C348.571 350.893 345.429 347.751 345.429 343.875C345.429 339.999 348.571 336.857 352.446 336.857C356.322 336.857 359.464 339.999 359.464 343.875Z" fill="#4C34C5"/>
<path d="M401.571 343.875C401.571 347.751 398.429 350.893 394.554 350.893C390.678 350.893 387.536 347.751 387.536 343.875C387.536 339.999 390.678 336.857 394.554 336.857C398.429 336.857 401.571 339.999 401.571 343.875Z" fill="#4C34C5"/>
<path d="M443.679 343.875C443.679 347.751 440.537 350.893 436.661 350.893C432.785 350.893 429.643 347.751 429.643 343.875C429.643 339.999 432.785 336.857 436.661 336.857C440.537 336.857 443.679 339.999 443.679 343.875Z" fill="#4C34C5"/>
<path d="M485.786 343.875C485.786 347.751 482.644 350.893 478.768 350.893C474.892 350.893 471.75 347.751 471.75 343.875C471.75 339.999 474.892 336.857 478.768 336.857C482.644 336.857 485.786 339.999 485.786 343.875Z" fill="#4C34C5"/>
<path d="M317.357 385.982C317.357 389.858 314.215 393 310.339 393C306.463 393 303.321 389.858 303.321 385.982C303.321 382.106 306.463 378.964 310.339 378.964C314.215 378.964 317.357 382.106 317.357 385.982Z" fill="#4C34C5"/>
<path d="M359.464 385.982C359.464 389.858 356.322 393 352.446 393C348.571 393 345.429 389.858 345.429 385.982C345.429 382.106 348.571 378.964 352.446 378.964C356.322 378.964 359.464 382.106 359.464 385.982Z" fill="#4C34C5"/>
<path d="M401.571 385.982C401.571 389.858 398.429 393 394.554 393C390.678 393 387.536 389.858 387.536 385.982C387.536 382.106 390.678 378.964 394.554 378.964C398.429 378.964 401.571 382.106 401.571 385.982Z" fill="#4C34C5"/>
<path d="M443.679 385.982C443.679 389.858 440.537 393 436.661 393C432.785 393 429.643 389.858 429.643 385.982C429.643 382.106 432.785 378.964 436.661 378.964C440.537 378.964 443.679 382.106 443.679 385.982Z" fill="#4C34C5"/>
<rect y="123" width="300" height="300" rx="25" fill="#4C34C5"/>
</svg>
