<svg width="307" height="240" viewBox="0 0 307 240" fill="none" xmlns="http://www.w3.org/2000/svg">
<path opacity="0.5" fill-rule="evenodd" clip-rule="evenodd" d="M1.6875 27.375C2.61948 27.375 3.375 26.6195 3.375 25.6875C3.375 24.7555 2.61948 24 1.6875 24C0.75552 24 0 24.7555 0 25.6875C0 26.6195 0.75552 27.375 1.6875 27.375ZM1.6875 169.125C2.61948 169.125 3.375 168.369 3.375 167.438C3.375 166.506 2.61948 165.75 1.6875 165.75C0.75552 165.75 0 166.506 0 167.438C0 168.369 0.75552 169.125 1.6875 169.125ZM145.125 25.6875C145.125 26.6195 144.369 27.375 143.438 27.375C142.506 27.375 141.75 26.6195 141.75 25.6875C141.75 24.7555 142.506 24 143.438 24C144.369 24 145.125 24.7555 145.125 25.6875ZM143.438 169.125C144.369 169.125 145.125 168.369 145.125 167.438C145.125 166.506 144.369 165.75 143.438 165.75C142.506 165.75 141.75 166.506 141.75 167.438C141.75 168.369 142.506 169.125 143.438 169.125ZM3.375 96.5625C3.375 97.4945 2.61948 98.25 1.6875 98.25C0.75552 98.25 0 97.4945 0 96.5625C0 95.6305 0.75552 94.875 1.6875 94.875C2.61948 94.875 3.375 95.6305 3.375 96.5625ZM1.6875 240C2.61948 240 3.375 239.244 3.375 238.312C3.375 237.381 2.61948 236.625 1.6875 236.625C0.75552 236.625 0 237.381 0 238.312C0 239.244 0.75552 240 1.6875 240ZM145.125 96.5625C145.125 97.4945 144.369 98.25 143.438 98.25C142.506 98.25 141.75 97.4945 141.75 96.5625C141.75 95.6305 142.506 94.875 143.438 94.875C144.369 94.875 145.125 95.6305 145.125 96.5625ZM143.438 240C144.369 240 145.125 239.244 145.125 238.312C145.125 237.381 144.369 236.625 143.438 236.625C142.506 236.625 141.75 237.381 141.75 238.312C141.75 239.244 142.506 240 143.438 240ZM74.25 25.6875C74.25 26.6195 73.4945 27.375 72.5625 27.375C71.6305 27.375 70.875 26.6195 70.875 25.6875C70.875 24.7555 71.6305 24 72.5625 24C73.4945 24 74.25 24.7555 74.25 25.6875ZM72.5625 169.125C73.4945 169.125 74.25 168.369 74.25 167.438C74.25 166.506 73.4945 165.75 72.5625 165.75C71.6305 165.75 70.875 166.506 70.875 167.438C70.875 168.369 71.6305 169.125 72.5625 169.125ZM216 25.6875C216 26.6195 215.244 27.375 214.312 27.375C213.381 27.375 212.625 26.6195 212.625 25.6875C212.625 24.7555 213.381 24 214.312 24C215.244 24 216 24.7555 216 25.6875ZM214.312 169.125C215.244 169.125 216 168.369 216 167.438C216 166.506 215.244 165.75 214.312 165.75C213.381 165.75 212.625 166.506 212.625 167.438C212.625 168.369 213.381 169.125 214.312 169.125ZM74.25 96.5625C74.25 97.4945 73.4945 98.25 72.5625 98.25C71.6305 98.25 70.875 97.4945 70.875 96.5625C70.875 95.6305 71.6305 94.875 72.5625 94.875C73.4945 94.875 74.25 95.6305 74.25 96.5625ZM72.5625 240C73.4945 240 74.25 239.244 74.25 238.312C74.25 237.381 73.4945 236.625 72.5625 236.625C71.6305 236.625 70.875 237.381 70.875 238.312C70.875 239.244 71.6305 240 72.5625 240ZM216 96.5625C216 97.4945 215.244 98.25 214.312 98.25C213.381 98.25 212.625 97.4945 212.625 96.5625C212.625 95.6305 213.381 94.875 214.312 94.875C215.244 94.875 216 95.6305 216 96.5625ZM214.312 240C215.244 240 216 239.244 216 238.312C216 237.381 215.244 236.625 214.312 236.625C213.381 236.625 212.625 237.381 212.625 238.312C212.625 239.244 213.381 240 214.312 240Z" fill="white"/>
<path opacity="0.5" d="M230.476 204.28C211.33 214.578 189.474 218.72 167.888 216.142C146.302 213.563 126.036 204.39 109.854 189.873C93.6724 175.356 82.3617 156.201 77.4645 135.02C72.5672 113.839 74.3217 91.6638 82.4888 71.5167L83.4755 71.9167C75.3907 91.8608 73.6539 113.813 78.5018 134.78C83.3497 155.748 94.5465 174.71 110.565 189.081C126.584 203.452 146.646 212.532 168.014 215.084C189.383 217.637 211.019 213.536 229.971 203.342L230.476 204.28Z" fill="white"/>
<path opacity="0.65" d="M130.365 18.151C149.511 7.85322 171.367 3.71107 192.953 6.28929C214.539 8.86751 234.804 18.0406 250.986 32.5579C267.168 47.0751 278.479 66.23 283.376 87.4107C288.273 108.591 286.519 130.767 278.352 150.914L277.365 150.514C285.45 130.57 287.187 108.618 282.339 87.6505C277.491 66.6832 266.294 47.7214 250.275 33.3504C234.256 18.9794 214.195 9.89872 192.826 7.34647C171.458 4.79423 149.822 8.89464 130.869 19.0886L130.365 18.151Z" fill="white"/>
<path opacity="0.5" d="M129.49 0L129.735 8.86585C129.922 15.619 135.352 21.0496 142.105 21.2361L150.971 21.4809L142.105 21.7257C135.352 21.9121 129.922 27.3427 129.735 34.0959L129.49 42.9617L129.246 34.0959C129.059 27.3427 123.629 21.9121 116.875 21.7257L108.01 21.4809L116.875 21.2361C123.628 21.0496 129.059 15.619 129.246 8.86585L129.49 0Z" fill="white"/>
<path opacity="0.5" d="M299.164 141.837L290.999 145.299C284.779 147.936 281.704 154.974 283.993 161.33L286.999 169.674L283.537 161.508C280.9 155.288 273.863 152.213 267.507 154.503L259.163 157.509L267.329 154.047C273.548 151.41 276.624 144.372 274.334 138.017L271.328 129.672L274.79 137.838C277.427 144.058 284.464 147.133 290.82 144.844L299.164 141.837Z" fill="white"/>
<path opacity="0.5" d="M233.258 221.883L232.86 213.022C232.556 206.273 227.032 200.938 220.276 200.869L211.408 200.778L220.268 200.379C227.017 200.076 232.352 194.552 232.421 187.796L232.512 178.927L232.911 187.788C233.214 194.537 238.739 199.872 245.494 199.941L254.363 200.032L245.502 200.431C238.754 200.734 233.418 206.259 233.349 213.014L233.258 221.883Z" fill="white"/>
<path opacity="0.5" d="M104.088 68.6554L95.3044 69.8866C88.6141 70.8245 83.8225 76.8264 84.3897 83.5582L85.1343 92.3962L83.9031 83.6128C82.9653 76.9225 76.9634 72.1309 70.2315 72.6981L61.3936 73.4427L70.1769 72.2115C76.8672 71.2737 81.6589 65.2718 81.0917 58.5399L80.347 49.702L81.5782 58.4854C82.5161 65.1756 88.518 69.9673 95.2498 69.4001L104.088 68.6554Z" fill="white"/>
</svg>
