<svg width="424" height="424" viewBox="0 0 424 424" fill="none" xmlns="http://www.w3.org/2000/svg">
<g opacity="0.56">
<path d="M116.084 127.199C117.044 126.79 118.008 126.39 118.978 126H231.022C231.992 126.39 232.956 126.79 233.916 127.199H116.084Z" fill="white"/>
<path d="M93.5382 139.191C94.1632 138.787 94.7915 138.387 95.4229 137.992H254.577C255.209 138.387 255.837 138.787 256.462 139.191H93.5382Z" fill="white"/>
<path d="M77.4583 151.183C77.9291 150.78 78.4026 150.38 78.8785 149.984H271.122C271.597 150.38 272.071 150.78 272.542 151.183H77.4583Z" fill="white"/>
<path d="M64.962 163.175C65.3352 162.773 65.7107 162.373 66.0882 161.975H283.912C284.289 162.373 284.665 162.773 285.038 163.175H64.962Z" fill="white"/>
<path d="M54.9287 175.166C55.2305 174.765 55.5342 174.365 55.8399 173.967H294.16C294.466 174.365 294.77 174.765 295.071 175.166H54.9287Z" fill="white"/>
<path d="M46.7853 187.158C47.0301 186.757 47.2768 186.357 47.5253 185.959H302.475C302.723 186.357 302.97 186.757 303.215 187.158H46.7853Z" fill="white"/>
<path d="M40.195 199.15C40.3919 198.749 40.5906 198.349 40.791 197.95H309.209C309.409 198.349 309.608 198.749 309.805 199.15H40.195Z" fill="white"/>
<path d="M34.9435 211.141C35.0983 210.741 35.2548 210.341 35.4129 209.942H314.587C314.745 210.341 314.902 210.741 315.057 211.141H34.9435Z" fill="white"/>
<path d="M30.887 223.133C31.0037 222.733 31.122 222.333 31.242 221.934H318.758C318.878 222.333 318.996 222.733 319.113 223.133H30.887Z" fill="white"/>
<path d="M27.9267 235.125C28.008 234.724 28.091 234.325 28.1755 233.926H321.825C321.909 234.325 321.992 234.724 322.073 235.125H27.9267Z" fill="white"/>
<path d="M25.9941 247.116C26.042 246.716 26.0915 246.316 26.1425 245.917H323.857C323.909 246.316 323.958 246.716 324.006 247.116H25.9941Z" fill="white"/>
<path d="M25.0425 259.108C25.0582 258.708 25.0756 258.308 25.0945 257.909H324.906C324.924 258.308 324.942 258.708 324.958 259.108H25.0425Z" fill="white"/>
<path d="M25.0425 271.1C25.0268 270.701 25.0126 270.301 25 269.901H325C324.987 270.301 324.973 270.701 324.958 271.1H25.0425Z" fill="white"/>
<path d="M25.9941 283.092C25.9463 282.692 25.9 282.293 25.8554 281.892H324.145C324.1 282.293 324.054 282.692 324.006 283.092H25.9941Z" fill="white"/>
<path d="M27.9267 295.083C27.8455 294.684 27.766 294.284 27.6881 293.884H322.312C322.234 294.284 322.154 294.684 322.073 295.083H27.9267Z" fill="white"/>
<path d="M30.887 307.075C30.7707 306.676 30.656 306.276 30.543 305.876H319.457C319.344 306.276 319.229 306.676 319.113 307.075H30.887Z" fill="white"/>
<path d="M34.9435 319.067C34.7893 318.668 34.6368 318.268 34.486 317.867H315.514C315.363 318.268 315.211 318.668 315.057 319.067H34.9435Z" fill="white"/>
<path d="M40.195 331.058C39.9991 330.66 39.8049 330.26 39.6125 329.859H310.388C310.195 330.26 310.001 330.66 309.805 331.058H40.195Z" fill="white"/>
<path d="M46.7853 343.05C46.5419 342.652 46.3003 342.252 46.0606 341.851H303.939C303.7 342.252 303.458 342.652 303.215 343.05H46.7853Z" fill="white"/>
<path d="M54.9287 355.042C54.6293 354.644 54.3317 354.244 54.0362 353.843H295.964C295.668 354.244 295.371 354.644 295.071 355.042H54.9287Z" fill="white"/>
<path d="M64.962 367.033C64.5925 366.636 64.2252 366.236 63.86 365.834H286.14C285.775 366.236 285.407 366.636 285.038 367.033H64.962Z" fill="white"/>
<path d="M77.4583 379.025C76.994 378.628 76.5322 378.228 76.0728 377.826H273.927C273.468 378.228 273.006 378.628 272.542 379.025H77.4583Z" fill="white"/>
<path d="M93.5382 391.017C92.9268 390.621 92.3185 390.222 91.7133 389.818H258.287C257.682 390.222 257.073 390.621 256.462 391.017H93.5382Z" fill="white"/>
<path d="M116.084 403.009C115.168 402.618 114.257 402.218 113.35 401.809H236.65C235.743 402.218 234.832 402.618 233.916 403.009H116.084Z" fill="white"/>
<path d="M194.074 413.801C187.827 414.592 181.461 415 175 415C168.539 415 162.173 414.592 155.926 413.801H194.074Z" fill="white"/>
</g>
<g opacity="0.56">
<mask id="path-2-inside-1_2083_55" fill="white">
<path fill-rule="evenodd" clip-rule="evenodd" d="M197.502 142.113C188.176 127.175 176.587 113.824 165.592 106.066C137.995 86.5946 104.582 100.152 87.6235 124.186C70.6652 148.221 65.9103 181.998 96.6914 203.717C108.399 211.977 124.201 218.427 140.467 222.226C124.699 231.756 110.466 243.906 102.352 255.406C82.8796 283.003 96.4367 316.416 120.471 333.375C144.506 350.333 178.283 355.088 200.002 324.307C209.504 310.84 216.61 291.954 220.041 273.178C229.671 290.672 243.34 307.19 257.497 317.178C288.278 338.897 318.507 323.093 335.465 299.058C352.423 275.024 353.994 238.999 326.397 219.528C313.191 210.21 292.096 202.789 271.312 199.604C288.256 190.026 304.13 176.729 313.838 162.971C335.556 132.189 319.753 101.96 295.718 85.0022C271.684 68.0439 235.659 66.4732 216.187 94.0701C207.922 105.784 201.149 123.706 197.502 142.113Z"/>
</mask>
<path d="M197.502 142.113L194.957 143.702L198.971 150.131L200.444 142.696L197.502 142.113ZM140.467 222.226L142.018 224.793L148.326 220.98L141.149 219.304L140.467 222.226ZM220.041 273.178L222.669 271.731L218.605 264.349L217.09 272.639L220.041 273.178ZM271.312 199.604L269.835 196.992L262.291 201.256L270.857 202.569L271.312 199.604ZM163.862 108.518C174.423 115.969 185.76 128.97 194.957 143.702L200.046 140.524C190.592 125.38 178.75 111.679 167.321 103.615L163.862 108.518ZM90.0747 125.916C106.442 102.719 138.083 90.3282 163.862 108.518L167.321 103.615C137.907 82.861 102.722 97.5841 85.1722 122.457L90.0747 125.916ZM98.421 201.266C83.7778 190.934 77.7558 177.916 77.253 164.706C76.745 151.361 81.8703 137.544 90.0747 125.916L85.1722 122.457C76.4183 134.863 70.687 149.952 71.2573 164.934C71.8328 180.052 78.8239 194.782 94.9619 206.168L98.421 201.266ZM141.149 219.304C125.153 215.568 109.734 209.248 98.421 201.266L94.9619 206.168C107.063 214.707 123.249 221.285 139.784 225.147L141.149 219.304ZM104.803 257.136C112.6 246.085 126.467 234.193 142.018 224.793L138.915 219.658C122.931 229.319 108.331 241.728 99.9003 253.677L104.803 257.136ZM122.201 330.923C99.0043 314.556 86.6133 282.915 104.803 257.136L99.9003 253.677C79.146 283.091 93.8691 318.276 118.742 335.826L122.201 330.923ZM197.551 322.577C187.219 337.22 174.201 343.242 160.991 343.745C147.646 344.253 133.829 339.128 122.201 330.923L118.742 335.826C131.148 344.58 146.237 350.311 161.219 349.741C176.337 349.165 191.067 342.174 202.453 326.036L197.551 322.577ZM217.09 272.639C213.715 291.105 206.74 309.553 197.551 322.577L202.453 326.036C212.268 312.127 219.504 292.803 222.992 273.717L217.09 272.639ZM259.226 314.727C245.531 305.064 232.14 288.935 222.669 271.731L217.413 274.625C227.203 292.409 241.15 309.316 255.767 319.629L259.226 314.727ZM333.014 297.329C324.809 308.957 313.51 318.418 300.767 322.413C288.153 326.368 273.869 325.059 259.226 314.727L255.767 319.629C271.905 331.016 288.126 332.664 302.562 328.138C316.869 323.653 329.162 313.195 337.916 300.788L333.014 297.329ZM324.668 221.979C350.447 240.168 349.381 274.133 333.014 297.329L337.916 300.788C355.466 275.916 357.541 237.831 328.127 217.076L324.668 221.979ZM270.857 202.569C291.352 205.71 311.961 213.013 324.668 221.979L328.127 217.076C314.422 207.407 292.84 199.868 271.766 196.639L270.857 202.569ZM272.788 202.216C290.012 192.48 306.264 178.909 316.289 164.7L311.387 161.241C301.997 174.548 286.5 187.573 269.835 196.992L272.788 202.216ZM316.289 164.7C327.676 148.562 329.324 132.341 324.798 117.905C320.312 103.599 309.854 91.3048 297.448 82.5509L293.989 87.4534C305.616 95.6578 315.077 106.958 319.073 119.7C323.028 132.314 321.718 146.598 311.387 161.241L316.289 164.7ZM297.448 82.5509C272.575 65.0013 234.49 62.9262 213.736 92.3406L218.638 95.7997C236.828 70.0202 270.792 71.0865 293.989 87.4534L297.448 82.5509ZM213.736 92.3406C205.149 104.51 198.257 122.871 194.559 141.53L200.444 142.696C204.042 124.542 210.695 107.058 218.638 95.7997L213.736 92.3406Z" fill="white" mask="url(#path-2-inside-1_2083_55)"/>
</g>
</svg>
